# xmcd
#
# Track frame offsets: 
#        150
#        25583
#        42100
#        77725
#        92725
#        110193
#        126420
#        143873
#        165365
#        183073
#        199545
#
# Disc length: 2939 seconds
#
# Revision: 0
# Processed by: cddbd v1.5.2PL0 Copyright (c) Steve Scherf et al.
# Submitted via: ExactAudioCopy v0.99pb3
#
DISCID=870b790b
DTITLE=Alabama Jr. Pettis and The Teardrops - Nora Lee - Chicago Blues S
DTITLE=ession Vol. 4
DYEAR=1900
DGENRE=Blues
TTITLE0=Nora Lee
TTITLE1=She Don't Love Me
TTITLE2=I'm A Lover
TTITLE3=She's Trying To Get Back
TTITLE4=Worried Blues
TTITLE5=I'm Mad
TTITLE6=Heart Fixin' Blues
TTITLE7=Blues Is A Feeling
TTITLE8=Oh Baby
TTITLE9=Poor Man Blues
TTITLE10=Bad Luck
EXTD=
EXTT0=
EXTT1=
EXTT2=
EXTT3=
EXTT4=
EXTT5=
EXTT6=
EXTT7=
EXTT8=
EXTT9=
EXTT10=
PLAYORDER=
